<svg width="144" height="44" fill="none" xmlns="http://www.w3.org/2000/svg"><rect y=".969" width="143.167" height="42.42" rx="5.302" fill="#000"/><path d="M72.258 24.036c-2.494 0-4.527 1.897-4.527 4.51 0 2.598 2.033 4.51 4.527 4.51 2.495 0 4.528-1.912 4.528-4.51 0-2.613-2.034-4.51-4.528-4.51zm0 7.245c-1.367 0-2.545-1.127-2.545-2.733 0-1.624 1.18-2.734 2.545-2.734 1.367 0 2.545 1.11 2.545 2.734 0 1.605-1.178 2.734-2.545 2.734zm-9.877-7.245c-2.495 0-4.528 1.897-4.528 4.51 0 2.598 2.033 4.51 4.528 4.51 2.495 0 4.528-1.912 4.528-4.51 0-2.613-2.033-4.51-4.528-4.51zm0 7.245c-1.367 0-2.546-1.127-2.546-2.733 0-1.624 1.18-2.734 2.546-2.734 1.367 0 2.545 1.11 2.545 2.734 0 1.605-1.178 2.734-2.545 2.734zm-11.749-5.86v1.913h4.58c-.137 1.077-.496 1.863-1.043 2.409-.666.666-1.708 1.4-3.537 1.4-2.818 0-5.022-2.272-5.022-5.09 0-2.82 2.204-5.092 5.022-5.092 1.521 0 2.632.598 3.451 1.367l1.35-1.35c-1.145-1.094-2.665-1.93-4.8-1.93-3.862 0-7.108 3.143-7.108 7.004 0 3.861 3.246 7.005 7.107 7.005 2.084 0 3.657-.684 4.886-1.965 1.264-1.264 1.658-3.042 1.658-4.477 0-.443-.034-.853-.103-1.195h-6.44v.001zm48.05 1.486c-.376-1.008-1.521-2.87-3.862-2.87-2.323 0-4.255 1.828-4.255 4.51 0 2.528 1.915 4.51 4.477 4.51 2.067 0 3.263-1.264 3.76-2l-1.539-1.025c-.512.752-1.213 1.247-2.221 1.247s-1.726-.46-2.187-1.367l6.031-2.494-.205-.511zm-6.151 1.504c-.051-1.744 1.35-2.631 2.358-2.631.786 0 1.452.393 1.675.956l-4.033 1.675zm-4.903 4.373h1.98V19.527h-1.98v13.257zm-3.247-7.74h-.068c-.445-.53-1.3-1.008-2.375-1.008-2.255 0-4.322 1.982-4.322 4.528 0 2.529 2.067 4.494 4.322 4.494 1.077 0 1.93-.478 2.375-1.025h.068v.65c0 1.725-.923 2.648-2.409 2.648-1.213 0-1.965-.871-2.272-1.606l-1.726.718c.495 1.195 1.81 2.665 3.998 2.665 2.324 0 4.289-1.367 4.289-4.7v-8.097h-1.88v.734zm-2.272 6.238c-1.367 0-2.511-1.146-2.511-2.718 0-1.59 1.144-2.75 2.511-2.75 1.349 0 2.408 1.16 2.408 2.75 0 1.572-1.059 2.718-2.408 2.718zm25.856-11.755h-4.741v13.257h1.977v-5.022h2.763c2.193 0 4.35-1.588 4.35-4.117 0-2.53-2.156-4.118-4.349-4.118zm.051 6.39h-2.815v-4.545h2.815c1.479 0 2.319 1.225 2.319 2.273 0 1.026-.84 2.271-2.319 2.271zm12.23-1.904c-1.433 0-2.917.63-3.531 2.03l1.756.733c.376-.733 1.076-.973 1.809-.973 1.023 0 2.063.614 2.08 1.705v.137c-.358-.205-1.126-.511-2.064-.511-1.892 0-3.82 1.04-3.82 2.984 0 1.774 1.552 2.917 3.291 2.917 1.33 0 2.064-.597 2.524-1.297h.068v1.023h1.911v-5.083c.001-2.352-1.757-3.665-4.024-3.665zm-.24 7.265c-.647 0-1.552-.324-1.552-1.126 0-1.023 1.127-1.416 2.099-1.416.869 0 1.279.188 1.807.444a2.399 2.399 0 01-2.354 2.098zm11.223-6.976l-2.268 5.748h-.068l-2.354-5.748h-2.132l3.53 8.034-2.012 4.469h2.063l5.442-12.503h-2.201zm-17.823 8.482h1.978V19.527h-1.978v13.257zM50.287 11.832c0 .888-.263 1.596-.79 2.124-.598.628-1.379.942-2.337.942-.919 0-1.7-.318-2.342-.955-.643-.637-.964-1.426-.964-2.368 0-.943.321-1.732.964-2.368.642-.637 1.423-.955 2.342-.955.456 0 .892.089 1.305.266.415.178.747.414.995.71l-.56.56c-.42-.503-1-.755-1.742-.755-.67 0-1.249.236-1.738.706-.489.471-.732 1.083-.732 1.835s.243 1.364.732 1.835a2.42 2.42 0 001.738.706c.711 0 1.304-.236 1.778-.71.307-.31.486-.739.533-1.289h-2.31v-.765h3.082c.032.167.046.327.046.48zm4.889-2.658h-2.897v2.017h2.613v.765h-2.613v2.017h2.897v.783h-3.715V8.393h3.715v.781zm3.447 5.582h-.817V9.174h-1.777v-.781H60.4v.781h-1.778v5.582zm4.941 0V8.393h.818v6.363h-.818zm4.444 0h-.818V9.174h-1.777v-.781h4.372v.781h-1.777v5.582zm10.054-.822c-.625.642-1.403.964-2.333.964-.93 0-1.707-.322-2.332-.964-.626-.643-.937-1.43-.937-2.36 0-.93.312-1.717.937-2.36.625-.642 1.402-.964 2.332-.964.925 0 1.701.323 2.33.969.627.646.94 1.43.94 2.355 0 .93-.312 1.717-.937 2.36zm-4.061-.534c.47.478 1.046.715 1.728.715.682 0 1.26-.239 1.729-.715.47-.477.707-1.086.707-1.826s-.236-1.349-.707-1.826a2.332 2.332 0 00-1.729-.715c-.682 0-1.257.239-1.728.715-.47.477-.707 1.086-.707 1.826s.237 1.35.707 1.826zm6.146 1.356V8.393h.995l3.093 4.949h.034l-.035-1.226V8.393h.818v6.363h-.854l-3.235-5.19h-.035l.035 1.225v3.965h-.816z" fill="#fff"/><path d="M50.287 11.832c0 .888-.263 1.596-.79 2.124-.598.628-1.379.942-2.337.942-.919 0-1.7-.318-2.342-.955-.643-.637-.964-1.426-.964-2.368 0-.943.321-1.732.964-2.368.642-.637 1.423-.955 2.342-.955.456 0 .892.089 1.305.266.415.178.747.414.995.71l-.56.56c-.42-.503-1-.755-1.742-.755-.67 0-1.249.236-1.738.706-.489.471-.732 1.083-.732 1.835s.243 1.364.732 1.835a2.42 2.42 0 001.738.706c.711 0 1.304-.236 1.778-.71.307-.31.486-.739.533-1.289h-2.31v-.765h3.082c.032.167.046.327.046.48zm4.889-2.658h-2.897v2.017h2.613v.765h-2.613v2.017h2.897v.783h-3.715V8.393h3.715v.781zm3.447 5.582h-.817V9.174h-1.777v-.781H60.4v.781h-1.778v5.582zm4.941 0V8.393h.818v6.363h-.818zm4.444 0h-.818V9.174h-1.777v-.781h4.372v.781h-1.777v5.582zm10.054-.822c-.625.642-1.403.964-2.333.964-.93 0-1.707-.322-2.332-.964-.626-.643-.937-1.43-.937-2.36 0-.93.312-1.717.937-2.36.625-.642 1.402-.964 2.332-.964.925 0 1.701.323 2.33.969.627.646.94 1.43.94 2.355 0 .93-.312 1.717-.937 2.36zm-4.061-.534c.47.478 1.046.715 1.728.715.682 0 1.26-.239 1.729-.715.47-.477.707-1.086.707-1.826s-.236-1.349-.707-1.826a2.332 2.332 0 00-1.729-.715c-.682 0-1.257.239-1.728.715-.47.477-.707 1.086-.707 1.826s.237 1.35.707 1.826zm6.146 1.356V8.393h.995l3.093 4.949h.034l-.035-1.226V8.393h.818v6.363h-.854l-3.235-5.19h-.035l.035 1.225v3.965h-.816z" stroke="#fff" stroke-width=".212" stroke-miterlimit="10"/><path fill-rule="evenodd" clip-rule="evenodd" d="M10.771 9.418a2.563 2.563 0 00-.194 1.035v23.454c0 .405.069.753.194 1.036L23.533 22.18 10.771 9.418zm.737 26.288c.473.203 1.09.139 1.763-.243l15.014-8.531-4.002-4.002-12.775 12.776zm17.734-9.317l4.71-2.676c1.482-.843 1.482-2.22 0-3.063l-4.712-2.678-4.207 4.208 4.209 4.209zm-.959-8.96l-15.012-8.53c-.673-.383-1.29-.447-1.763-.244L24.283 21.43l4-4.001z" fill="#fff"/></svg>