<svg width="144" height="44" fill="none" xmlns="http://www.w3.org/2000/svg"><rect x=".833" y=".969" width="143.167" height="42.42" rx="5.302" fill="#0C0D10"/><path d="M94.053 21.332v2.43H92.53v1.593h1.523v5.414c0 1.848.836 2.588 2.94 2.588.37 0 .722-.044 1.03-.097v-1.576a6.1 6.1 0 01-.722.044c-.942 0-1.356-.44-1.356-1.444v-4.93h2.078v-1.592h-2.078v-2.43h-1.892zm9.329 12.157c2.8 0 4.516-1.875 4.516-4.983 0-3.09-1.725-4.973-4.516-4.973-2.799 0-4.524 1.883-4.524 4.973 0 3.108 1.716 4.983 4.524 4.983zm0-1.682c-1.646 0-2.57-1.206-2.57-3.3 0-2.078.924-3.293 2.57-3.293 1.638 0 2.571 1.215 2.571 3.292 0 2.087-.933 3.301-2.571 3.301zm5.985 1.497h1.893v-5.66c0-1.347 1.012-2.254 2.447-2.254.334 0 .898.062 1.056.114v-1.866c-.202-.053-.563-.079-.845-.079-1.25 0-2.315.687-2.588 1.629h-.141v-1.47h-1.822v9.586zm10.096-8.161c1.399 0 2.315.978 2.359 2.483h-4.842c.106-1.497 1.083-2.483 2.483-2.483zm2.35 5.573c-.352.748-1.136 1.162-2.28 1.162-1.514 0-2.491-1.065-2.553-2.747v-.105h6.77v-.66c0-3.011-1.611-4.833-4.279-4.833-2.702 0-4.419 1.945-4.419 5.008 0 3.064 1.682 4.948 4.428 4.948 2.192 0 3.724-1.057 4.155-2.773h-1.822zm-40.172-.952c.146 2.354 2.108 3.86 5.027 3.86 3.12 0 5.073-1.58 5.073-4.097 0-1.98-1.113-3.075-3.813-3.705l-1.451-.356c-1.716-.401-2.409-.94-2.409-1.88 0-1.185 1.077-1.96 2.692-1.96 1.532 0 2.59.756 2.782 1.97h1.99c-.12-2.217-2.072-3.777-4.745-3.777-2.874 0-4.79 1.56-4.79 3.905 0 1.934 1.086 3.084 3.467 3.64l1.697.41c1.743.411 2.51 1.014 2.51 2.017 0 1.168-1.205 2.017-2.847 2.017-1.761 0-2.984-.794-3.157-2.044H81.64zm-19.606-6.205c-1.302 0-2.43.651-3.01 1.743h-.141v-1.584h-1.822V36.49h1.892v-4.64h.15c.502 1.013 1.584 1.611 2.949 1.611 2.42 0 3.961-1.91 3.961-4.956 0-3.046-1.54-4.947-3.979-4.947zm-.537 8.204c-1.584 0-2.579-1.25-2.579-3.248 0-2.007.995-3.257 2.588-3.257 1.602 0 2.562 1.224 2.562 3.248 0 2.034-.96 3.257-2.57 3.257zm11.139-8.204c-1.303 0-2.43.651-3.01 1.743h-.141v-1.584h-1.823V36.49h1.893v-4.64h.15c.501 1.013 1.584 1.611 2.948 1.611 2.421 0 3.962-1.91 3.962-4.956 0-3.046-1.54-4.947-3.98-4.947zm-.537 8.204c-1.585 0-2.58-1.25-2.58-3.248 0-2.007.995-3.257 2.589-3.257 1.602 0 2.561 1.224 2.561 3.248 0 2.034-.96 3.257-2.57 3.257zm-18.434 1.541h2.172l-4.754-13.166h-2.199l-4.754 13.166h2.099l1.213-3.495h5.019l1.204 3.495zM49.88 22.528h.155l1.907 5.566h-3.979l1.916-5.566zm-4.477-12.321v6.351h2.293c1.893 0 2.989-1.166 2.989-3.195 0-1.998-1.105-3.156-2.989-3.156h-2.293zm.986.898h1.197c1.316 0 2.095.836 2.095 2.271 0 1.457-.766 2.285-2.095 2.285h-1.197v-4.556zm7.652 5.545c1.4 0 2.258-.937 2.258-2.49 0-1.545-.862-2.487-2.258-2.487-1.4 0-2.262.942-2.262 2.487 0 1.553.858 2.49 2.262 2.49zm0-.84c-.823 0-1.285-.603-1.285-1.65 0-1.04.462-1.647 1.285-1.647.819 0 1.285.608 1.285 1.647 0 1.043-.466 1.65-1.285 1.65zm9.567-4.045h-.946l-.854 3.658h-.075l-.986-3.658h-.906l-.986 3.658h-.07l-.86-3.658h-.959l1.32 4.793h.974l.986-3.53h.074l.99 3.53h.982l1.316-4.793zm1.09 4.793h.946v-2.803c0-.749.445-1.215 1.145-1.215s1.034.383 1.034 1.153v2.865h.946v-3.103c0-1.14-.59-1.782-1.659-1.782-.722 0-1.197.321-1.43.854h-.07v-.762h-.912v4.793zm5.562 0h.946V9.895h-.946v6.663zm4.505.092c1.4 0 2.258-.937 2.258-2.49 0-1.545-.863-2.487-2.258-2.487-1.4 0-2.262.942-2.262 2.487 0 1.553.858 2.49 2.262 2.49zm0-.84c-.823 0-1.285-.603-1.285-1.65 0-1.04.462-1.647 1.285-1.647.819 0 1.285.608 1.285 1.647 0 1.043-.466 1.65-1.285 1.65zm5.078.03c-.515 0-.89-.25-.89-.681 0-.423.3-.647.96-.691l1.17-.075v.4c0 .595-.527 1.048-1.24 1.048zm-.242.798c.629 0 1.153-.273 1.439-.753h.075v.673h.91v-3.274c0-1.013-.677-1.611-1.879-1.611-1.087 0-1.862.528-1.958 1.351h.915c.106-.339.471-.533 1-.533.646 0 .98.287.98.793v.413l-1.298.075c-1.14.07-1.782.568-1.782 1.43 0 .877.673 1.436 1.598 1.436zm5.636 0c.66 0 1.22-.313 1.505-.837h.075v.757h.907V9.895h-.946v2.632h-.07c-.26-.529-.815-.841-1.47-.841-1.211 0-1.99.96-1.99 2.474 0 1.518.77 2.478 1.99 2.478zm.269-4.103c.792 0 1.29.63 1.29 1.629 0 1.004-.494 1.624-1.29 1.624-.802 0-1.281-.612-1.281-1.628 0-1.008.484-1.625 1.28-1.625zm8.354 4.115c1.4 0 2.258-.937 2.258-2.49 0-1.545-.862-2.487-2.257-2.487-1.4 0-2.263.942-2.263 2.487 0 1.553.858 2.49 2.263 2.49zm0-.84c-.823 0-1.285-.603-1.285-1.65 0-1.04.462-1.647 1.285-1.647.82 0 1.286.608 1.286 1.647 0 1.043-.467 1.65-1.285 1.65zm3.511.748h.946v-2.803c0-.749.445-1.215 1.145-1.215s1.034.383 1.034 1.153v2.865h.947v-3.103c0-1.14-.59-1.782-1.66-1.782-.722 0-1.197.321-1.43.854h-.07v-.762h-.912v4.793zm8.43-5.986v1.215h-.762v.797h.762v2.707c0 .924.418 1.294 1.47 1.294.185 0 .361-.022.515-.049v-.788c-.132.014-.216.023-.361.023-.471 0-.678-.22-.678-.722v-2.465h1.039v-.797h-1.039v-1.215h-.946zm3.255 5.986h.947V13.76c0-.726.431-1.215 1.206-1.215.669 0 1.025.388 1.025 1.153v2.861h.946v-3.094c0-1.14-.629-1.787-1.65-1.787-.722 0-1.228.321-1.461.858h-.075v-2.64h-.938v6.663zm7.538-4.08c.7 0 1.158.489 1.18 1.241h-2.421c.053-.748.541-1.24 1.241-1.24zm1.175 2.786c-.176.375-.567.581-1.14.581-.757 0-1.245-.532-1.276-1.373v-.053h3.385v-.33c0-1.505-.806-2.416-2.139-2.416-1.352 0-2.21.973-2.21 2.504 0 1.532.841 2.474 2.214 2.474 1.096 0 1.862-.528 2.077-1.387h-.911zM30.88 22.391c.031-2.238 1.305-4.357 3.326-5.53-1.275-1.718-3.41-2.807-5.632-2.873-2.37-.234-4.667 1.338-5.874 1.338-1.231 0-3.09-1.314-5.092-1.276-2.61.08-5.043 1.48-6.312 3.633-2.73 4.46-.694 11.013 1.92 14.618 1.309 1.765 2.837 3.736 4.838 3.666 1.957-.076 2.688-1.178 5.05-1.178 2.341 0 3.027 1.178 5.068 1.134 2.1-.032 3.423-1.773 4.685-3.555A14.279 14.279 0 0035 28.25c-2.468-.985-4.116-3.33-4.12-5.859zm-3.854-10.773c1.145-1.298 1.71-2.965 1.573-4.649-1.75.174-3.366.963-4.527 2.21-1.134 1.22-1.725 2.858-1.613 4.477 1.75.017 3.47-.75 4.567-2.038z" fill="#fff"/></svg>